<svg id="Layer_2_copy" height="512" viewBox="0 0 512 512" width="512" xmlns="http://www.w3.org/2000/svg" data-name="Layer 2 copy"><path d="m312 104 48-56-40-40h184v168l-40-32-48 48z" fill="#f9e48a"/><path d="m392 136h-128l-120 120 8 64-32 32 45.76 44.372 34.24-28.372 64 16 128-128z" fill="#169bd6"/><path d="m392 136h-128l-120 120 8 64-32 32 45.76 44.372 34.24-28.372 64 16 128-128z" fill="#169bd6"/><circle cx="270.699" cy="251.5" fill="#3dfaff" r="48" transform="matrix(.722 -.692 .692 .722 -98.757 257.194)"/><path d="m248 152h-56l-64 64 48 8z" fill="#0c8cc4"/><path d="m376 272v56l-72 72-8-48z" fill="#0c8cc4"/><path d="m48 504 117.76-107.628-44.279-46.21-113.481 105.838v48z" fill="#f4b651"/><path d="m265.809 136a205.781 205.781 0 0 1 77.776 47.268 209.453 209.453 0 0 1 48.415 72.732v-120z" fill="#56cbf4"/><path d="m8 248 208-192-24-32h88l-16 88-24-32-232 224z" fill="#f7d74f"/><path d="m232 504 208-192-24-32h88l-16 88-24-32-176 168z" fill="#f7d74f"/><path d="m265.809 136h-1.809l-120 120 8 64-32 32 22.397 21.717 249.603-237.717z" fill="#fafbfc" opacity=".3"/><path d="m270.71 307.474a55.975 55.975 0 1 0 -40.445-17.23 55.808 55.808 0 0 0 40.445 17.23zm-27.686-84.855a40 40 0 1 1 -1.207 56.556 39.86 39.86 0 0 1 1.207-56.556z"/><path d="m13.457 461.851 106.2-99.044 34.434 33.393-111.491 101.895 10.8 11.81 117.61-107.494 30.977-25.668 60.072 15.018a8 8 0 0 0 7.6-2.1l21.865-21.865 4.552 33.292a8 8 0 0 0 13.583 4.573l72-72a8 8 0 0 0 2.341-5.661v-52.687l13.657-13.657a8 8 0 0 0 2.343-5.656v-120a8 8 0 0 0 -8-8h-124.935c-.343-.112-.683-.236-1.026-.347l-.112.347h-1.927a8 8 0 0 0 -5.657 2.343l-13.656 13.657h-52.687a8 8 0 0 0 -5.657 2.343l-64 64a8 8 0 0 0 4.785 13.609l33.891 3.716-22.675 22.675a8 8 0 0 0 -2.281 6.649l7.515 60.118-27.383 27.383-.169-.181-113.483 105.837zm354.543-137.164-58.257 58.257-4.014-29.359 62.271-62.272zm16-180.687v77.742a211.511 211.511 0 0 0 -80.239-77.742zm-238.551 65.865 49.864-49.865h33.373l-53.163 53.163zm12.208 115.792a8 8 0 0 0 2.281-6.649l-7.515-60.118 114.161-114.16a196.8 196.8 0 0 1 115.916 109.46l-120.954 120.95-59.605-14.9a8 8 0 0 0 -7.045 1.6l-28.716 23.8-34.78-33.728z"/><path d="m512 8a8 8 0 0 0 -8-8h-184a8 8 0 0 0 -5.657 13.657l34.757 34.761-43.174 50.375 12.148 10.413 48-56a8 8 0 0 0 -.417-10.863l-26.343-26.343h156.686v143.355l-27-21.6a8 8 0 0 0 -10.654.59l-48 48 11.313 11.313 42.937-42.937 34.404 27.526a8 8 0 0 0 13-6.247z"/><path d="m13.426 253.878 208-192a8 8 0 0 0 .974-10.678l-14.4-19.2h62.414l-11.007 60.542-13.007-17.342a8 8 0 0 0 -12.057-.857l-40 40 11.313 11.313 33.478-33.478 18.466 24.622a8 8 0 0 0 14.271-3.369l16-88a8 8 0 0 0 -7.871-9.431h-88a8 8 0 0 0 -6.4 12.8l19.666 26.221-202.692 187.101z"/><path d="m-5.814 260h107.629v16h-107.629z" transform="matrix(.743 -.669 .669 .743 -166.961 100.907)"/><path d="m237.426 509.878 208-192a8 8 0 0 0 .974-10.678l-14.4-19.2h62.414l-11.007 60.542-13.007-17.342a8 8 0 0 0 -11.924-.987l-176 168 11.048 11.573 169.482-161.778 18.594 24.792a8 8 0 0 0 14.271-3.369l16-88a8 8 0 0 0 -7.871-9.431h-88a8 8 0 0 0 -6.4 12.8l19.666 26.221-202.692 187.1z"/></svg>