<svg height="512pt" viewBox="-81 0 512 512.20564" width="512pt" xmlns="http://www.w3.org/2000/svg"><path d="m324.351562 503.671875h-124.074218c-9.394532-.046875-16.984375-7.675781-16.984375-17.066406-.007813-5.628907-2.785157-10.890625-7.421875-14.078125l-138.15625-94.722656c-9.566406-6.574219-13.550782-18.734376-9.726563-29.695313l2.132813-5.972656 34.476562-97.792969c4.777344-13.617188 17.648438-22.726562 32.082032-22.699219h67.160156c7.089844.011719 14.007812 2.21875 19.796875 6.316407l3.15625 2.304687 17.152343 12.285156 1.28125-1.789062c2.171876-2.046875 4.066407-4.371094 5.632813-6.914063 4.046875-6.742187 2.179687-15.46875-4.269531-19.96875l-44.203125-31.316406c-2.894531-2.042969-6.351563-3.144531-9.898438-3.15625h-26.621093v-.425781c-3.253907-17.109375-3.023438-34.699219.679687-51.714844l-.167969-.167969 4.605469-4.097656 33.792969-32.425781c12.847656-12.996094 13.261718-33.78125.9375-47.273438l.511718-.429687c1.664063-1.019532 3.402344-1.90625 5.207032-2.644532 13.449218-6.792968 29.863281-1.882812 37.375 11.179688 17.066406 25.597656-34.046875 50.773438-8.53125 101.972656 14.078125 28.160156 51.964844 56.148438 59.648437 61.867188 44.164063 39.980468 67.875 97.789062 64.511719 157.269531-1.957031 21.382813-.605469 42.941406 4.007812 63.914063l12.546876 46.335937c1.167968 5.070313-.035157 10.398437-3.277344 14.46875-3.238282 4.070313-8.160156 6.441406-13.363282 6.4375zm0 0" fill="#a4c2f7"/><path d="m298.75 503.671875h-98.472656c-9.394532-.046875-16.984375-7.675781-16.984375-17.066406-.007813-5.628907-2.785157-10.890625-7.421875-14.078125l-138.15625-94.722656c-9.566406-6.574219-13.550782-18.734376-9.726563-29.695313l2.132813-5.972656 34.476562-97.792969c4.777344-13.617188 17.648438-22.726562 32.082032-22.699219h41.558593c7.09375.011719 14.007813 2.21875 19.796875 6.316407l20.308594 14.589843 1.28125-1.789062c2.175781-2.046875 4.066406-4.371094 5.632812-6.914063.667969-1.121094 1.1875-2.324218 1.535157-3.582031l17.152343 12.285156 1.28125-1.789062c2.171876-2.046875 4.066407-4.371094 5.632813-6.914063 4.046875-6.742187 2.179687-15.46875-4.269531-19.96875l-44.203125-31.316406c-2.894531-2.042969-6.351563-3.144531-9.898438-3.15625h-26.621093v-.425781c-3.253907-17.109375-3.023438-34.699219.679687-51.714844l-.167969-.167969 4.605469-4.097656 33.792969-32.425781c12.847656-12.996094 13.261718-33.78125.9375-47.273438l.511718-.429687c1.664063-1.019532 3.402344-1.90625 5.207032-2.644532 4.800781 2.675782 8.851562 6.523438 11.777344 11.179688 17.066406 25.597656-34.050782 50.773438-8.535157 101.972656 14.082031 28.160156 51.96875 56.148438 59.648438 61.867188 44.164062 39.980468 67.878906 97.789062 64.511719 157.269531-1.957032 21.382813-.605469 42.941406 4.011718 63.914063l12.542969 46.335937c1.171875 5.070313-.035156 10.398437-3.277344 14.46875-3.238281 4.070313-8.160156 6.441406-13.363281 6.4375zm0 0" fill="#e3e7f2"/><path d="m98.304688 59.9375v22.015625l-.171876.171875-51.03125 47.703125v-86.957031c.03125-9.414063 7.652344-17.039063 17.066407-17.066406 9.058593-.011719 17.746093 3.582031 24.148437 9.984374 6.40625 6.40625 9.996094 15.09375 9.988282 24.148438zm0 0" fill="#e3e7f2"/><path d="m164.777344 90.574219-33.792969 32.425781-2.386719 2.132812-2.21875 1.964844-42.15625 37.972656c-1.726562 1.792969-2.542968 4.273438-2.21875 6.742188.375 2.367188.546875 4.765625.511719 7.167969v.425781h-3.242187c-14.5-.050781-27.460938 9.042969-32.339844 22.699219l-20.824219 58.453125-2.472656-.855469c-4.390625-28.832031-6.53125-57.960937-6.402344-87.125-.109375-6.535156 2.308594-12.863281 6.742187-17.664063l23.039063-25h.085937v-.085937l51.03125-47.703125.171876-.171875 42.324218-39.679687c3.191406-3.21875 7.539063-5.03125 12.074219-5.03125s8.882813 1.8125 12.074219 5.03125c.335937.320312.648437.664062.9375 1.027343 12.324218 13.492188 11.910156 34.277344-.9375 47.273438zm0 0" fill="#e3e7f2"/><path d="m125.867188 130.59375c-.070313.25-.101563.511719-.085938.769531l-.085938.085938c.085938-.257813.085938-.597657.171876-.855469zm0 0" fill="#fdd7ad"/><path d="m212.992188 226.082031c.007812 2.734375-.730469 5.421875-2.132813 7.765625-1.566406 2.542969-3.460937 4.867188-5.632813 6.914063l-1.28125 1.789062-20.308593-14.589843c-5.789063-4.097657-12.707031-6.304688-19.796875-6.316407h-67.160156c-1.109376 0-2.21875.085938-3.242188.171875-1.023438.085938-2.046875.253906-3.070312.425782-1.28125.257812-2.476563.597656-3.667969.9375-.964844.265624-1.90625.609374-2.816407 1.027343-.085937.082031-.257812.082031-.34375.167969-1.105468.390625-2.164062.90625-3.15625 1.539062-1.058593.480469-2.0625 1.082032-2.988281 1.789063-1.007812.613281-1.949219 1.328125-2.8125 2.132813-.933593.707031-1.792969 1.507812-2.5625 2.390624l-1.707031 1.964844-.085938.082032c-.765624.941406-1.449218 1.878906-2.132812 2.902343-.425781.683594-.765625 1.28125-1.195312 1.964844l-.253907.511719c-.425781.695312-.769531 1.441406-1.023437 2.21875-.429688.785156-.773438 1.613281-1.023438 2.472656l-34.476562 97.792969-10.238282-6.996094c-9.648437-6.433594-13.664062-18.621094-9.730468-29.527344l15.957031-45.054687 20.824219-58.453125c4.878906-13.65625 17.839844-22.75 32.339844-22.699219h73.214843c3.546875.011719 7.003907 1.113281 9.898438 3.15625l44.203125 31.316406c3.984375 2.792969 6.367187 7.339844 6.402344 12.203125zm0 0" fill="#e3e7f2"/><path d="m124.242188 141.859375c-.652344 6.175781-.824219 12.398437-.511719 18.601563v.511718c0 .425782.085937.941406.085937 1.367188-.011718.230468.015625.460937.085938.683594.03125 1.597656.144531 3.191406.339844 4.777343.171874 1.621094.34375 3.242188.597656 4.863281.257812 2.046876.597656 4.179688 1.027344 6.316407v.425781h-43.351563v-.425781c.035156-2.402344-.136719-4.800781-.511719-7.167969-.324218-2.46875.492188-4.949219 2.21875-6.742188l42.15625-37.972656.167969.167969c-.167969 1.023437-.425781 2.132813-.679687 3.328125-.085938.257812-.085938.597656-.171876.855469-.34375 2.046875-.769531 4.351562-1.023437 6.65625-.171875 1.195312-.34375 2.472656-.429687 3.753906zm0 0" fill="#e3e7f2"/><path d="m123.730469 160.460938c-.3125-6.203126-.140625-12.425782.511719-18.601563-.566407 6.183594-.738282 12.398437-.511719 18.601563zm0 0" fill="#fdd7ad"/><path d="m128.597656 125.132812-2.816406 6.230469-.085938.085938c.085938-.257813.085938-.597657.171876-.855469.253906-1.195312.511718-2.304688.679687-3.328125l-.167969-.167969zm0 0" fill="#fdd7ad"/><path d="m164.777344 90.574219-33.792969 32.425781-2.386719 2.132812-2.21875 1.964844-42.15625 37.972656c-1.726562 1.792969-2.542968 4.273438-2.21875 6.742188.375 2.367188.546875 4.765625.511719 7.167969v.425781h-3.242187c-6.257813-.011719-12.398438 1.699219-17.75 4.949219v-4.949219c0-2.816406-.171876-10.070312-.511719-11.949219-.324219-2.464843.492187-4.945312 2.21875-6.738281l42.15625-37.972656 2.21875-1.964844 2.386719-2.132812 33.792968-32.425782c12.769532-12.90625 13.253906-33.527344 1.109375-47.019531 2.417969-1.289063 5.113281-1.960937 7.851563-1.964844 4.519531.015625 8.847656 1.824219 12.03125 5.035157.335937.320312.648437.664062.9375 1.027343 12.324218 13.492188 11.910156 34.277344-.9375 47.273438zm0 0" fill="#a4c2f7"/><path d="m19.882812 335.140625 10.238282 6.996094-2.132813 5.972656c-3.824219 10.960937.160157 23.121094 9.726563 29.695313l138.15625 94.722656c4.636718 3.1875 7.414062 8.449218 7.421875 14.078125 0 9.390625 7.589843 17.019531 16.984375 17.066406h25.597656c-9.390625-.046875-16.980469-7.675781-16.980469-17.066406-.011719-5.628907-2.785156-10.890625-7.421875-14.078125l-138.15625-94.722656c-9.566406-6.574219-13.550781-18.734376-9.726562-29.695313l2.132812-5.972656-10.242187-6.996094c-9.648438-6.433594-13.660157-18.621094-9.726563-29.527344l15.957032-45.054687-2.476563-.855469c-4.386719-28.832031-6.527344-57.960937-6.398437-87.125-.109376-6.535156 2.304687-12.863281 6.742187-17.664063l23.039063-25h.085937v-87.042968c.027344-5.230469 2.460937-10.160156 6.597656-13.363282-4.6875-2.394531-9.867187-3.664062-15.132812-3.703124-9.414063.027343-17.035157 7.652343-17.066407 17.066406v87.042968h-.085937l-23.039063 25c-4.433593 4.800782-6.851562 11.128907-6.742187 17.664063-.128906 29.164063 2.011719 58.292969 6.402344 87.125l2.472656.855469-15.957031 45.054687c-3.933594 10.90625.082031 23.09375 9.730468 29.527344zm0 0" fill="#fff"/><path d="m42.511719 370.738281 91.496093 62.738281 46.667969 32.007813-9.652343 14.074219-46.667969-32.011719-91.496094-62.734375zm0 0" fill="#fff"/><g fill="#428dff"><path d="m92.414062 407.960938-1.5625.472656c-.535156.214844-1.042968.503906-1.507812.851562-.476562.261719-.910156.59375-1.289062.980469-.394532.410156-.761719.847656-1.101563 1.304687-1.253906 1.882813-1.75 4.167969-1.390625 6.402344.238281 1.097656.679688 2.140625 1.304688 3.070313 1.902343 2.859375 5.300781 4.335937 8.6875 3.78125 1.097656-.242188 2.136718-.683594 3.074218-1.304688.941406-.601562 1.753906-1.382812 2.394532-2.296875 1.976562-2.847656 2.03125-6.605468.140624-9.511718-1.886718-2.90625-5.34375-4.378907-8.75-3.730469zm0 0"/><path d="m191.863281 29.449219c-8.558593-1.519531-17.378906-.289063-25.191406 3.515625-10.089844-6.285156-23.136719-5.027344-31.839844 3.070312l-27.960937 26.183594v-2.28125c0-23.5625-19.101563-42.664062-42.667969-42.664062-14.136719 0-25.597656 11.460937-25.597656 25.597656v83.578125l-20.890625 22.65625c-5.933594 6.40625-9.167969 14.855469-9.027344 23.585937-.167969 29.746094 2.027344 59.464844 6.570312 88.863282.183594.671874.453126 1.316406.800782 1.921874l-13.925782 39.175782c-5.296874 14.582031.035157 30.898437 12.917969 39.542968l4.875 3.3125c-4.976562 14.503907.308594 30.542969 12.925781 39.253907l28.160157 19.300781c2.511719 1.800781 5.800781 2.097656 8.597656.785156s4.664063-4.035156 4.882813-7.121094c.21875-3.082031-1.246094-6.039062-3.828126-7.734374l-28.160156-19.304688c-6.367187-4.382812-9.007812-12.488281-6.441406-19.777344l36.554688-103.699218c3.609374-10.203126 13.242187-17.035157 24.0625-17.066407h67.160156c5.324218-.003906 10.515625 1.664063 14.839844 4.769531l39.398437 28.203126c2.765625 2.015624 3.542969 5.804687 1.789063 8.746093-3.574219 6-9.457032 10.261719-16.269532 11.800781-6.808594 1.535157-13.953125.207032-19.757812-3.675781l-17.066406-11.390625c-4.195313-2.824218-9.140626-4.328125-14.199219-4.320312h-26.28125c-11.109375-.066406-20.972657 7.101562-24.339844 17.691406-.5 1.59375-1.21875 3.574219-2.027344 5.800781-6.144531 16.980469-20.480469 56.714844 12.046875 69.761719 2.855469 1.269531 6.175782.875 8.65625-1.023438 2.480469-1.898437 3.722656-5 3.242188-8.085937-.480469-3.089844-2.609375-5.664063-5.550782-6.722656-14.308593-5.742188-11.289062-23.398438-2.34375-48.117188.902344-2.492187 1.707032-4.683593 2.25-6.460937 1.136719-3.480469 4.402344-5.820313 8.066407-5.777344h26.273437c1.675782 0 3.3125.5 4.703125 1.433594l17.066407 11.402344c9.691406 6.472656 21.617187 8.6875 32.992187 6.125 11.371094-2.5625 21.195313-9.679688 27.175781-19.683594 6.257813-10.578125 3.425782-24.183594-6.527344-31.386719l-11.667968-8.390625c.625-.851562 1.296875-1.703125 1.828125-2.558594 6.335937-10.570312 3.4375-24.234375-6.640625-31.324218l-44.160156-31.351563c-4.339844-3.070313-9.523438-4.726563-14.839844-4.738281h-19.292969c-1.773437-13.214844-1.347656-26.636719 1.265625-39.714844l36.359375-34.574219c13.144531-13.207031 16.199219-33.417969 7.542969-49.921875 9.042968-2.847656 18.835937 1.128906 23.339844 9.472656 4.265624 6.375 1.867187 12.699219-5 26.675782-8.621094 17.527344-20.414063 41.539062-4.046876 74.34375 13.074219 26.222656 44.59375 51.941406 62.226563 64.917968 11.332031 8.339844 67.480469 67.902344 61.027344 149.726563-1.992188 22.359375-.550781 44.894531 4.269531 66.816406l12.457031 46.082031c.582031 2.527344-.019531 5.183594-1.632812 7.21875-1.613281 2.03125-4.066407 3.21875-6.660157 3.226563h-124.058593c-4.710938 0-8.53125-3.824219-8.53125-8.535156.007812-8.4375-4.144531-16.339844-11.09375-21.121094l-53.710938-36.835937c-3.886719-2.667969-9.199219-1.675782-11.863281 2.214843-2.667969 3.886719-1.675781 9.199219 2.210938 11.863281l53.710937 36.832032c2.324219 1.589844 3.714844 4.230468 3.710937 7.046875 0 14.136719 11.460938 25.601562 25.601563 25.601562h124.023437c7.785157.019531 15.148438-3.53125 19.984376-9.636719 4.929687-6.203124 6.71875-14.332031 4.847656-22.03125l-12.460938-46.082031c-4.378906-20.136719-5.667968-40.820312-3.820312-61.34375 7.03125-89.183593-52.753906-153.601562-67.917969-164.796875-27.894531-20.566406-48.699219-42-57.097656-58.820312-12.585938-25.242188-4.101563-42.503906 4.097656-59.195313 6.878906-14.003906 13.992187-28.476562 3.898437-43.65625-5.320312-8.773437-14-14.988281-24.019531-17.195312zm-127.660156 4.890625c14.140625 0 25.601563 11.460937 25.601563 25.597656v18.261719l-34.132813 31.949219v-67.277344c0-2.261719.898437-4.433594 2.496094-6.03125 1.601562-1.601563 3.773437-2.5 6.035156-2.5zm93.234375 155.1875 44.167969 31.300781c1.730469 1.195313 2.777343 3.152344 2.808593 5.253906.011719 1.199219-.300781 2.378907-.902343 3.414063-.300781.496094-.691407.988281-1.050781 1.476562l-13.859376-9.914062c-7.210937-5.179688-15.867187-7.960938-24.746093-7.953125h-67.15625c-18.066407.027343-34.15625 11.433593-40.167969 28.472656l-30.71875 87.296875-1.109375-.75c-6.425781-4.265625-9.101563-12.375-6.476563-19.628906l36.796876-103.542969c3.667968-10.230469 13.378906-17.042969 24.25-17.015625h73.222656c1.773437.011719 3.496094.566406 4.941406 1.589844zm-66.898438-18.65625 24.660157-22.1875c-.324219 7.40625-.054688 14.828125.808593 22.1875zm68.308594-86.457032-33.5625 32.21875-47.257812 42.566407c-3.070313 3.265625-4.6875 7.636719-4.480469 12.117187-15.878906 2.066406-29.265625 12.851563-34.660156 27.929688l-10.710938 30.121094c-1.707031-21.007813-2.261719-44.757813-2.421875-56.90625-.070312-4.363282 1.546875-8.585938 4.511719-11.785157l22.519531-24.464843c.203125-.175782.398438-.359376.582032-.554688l50.105468-46.890625c.488282-.367187.929688-.785156 1.324219-1.246094l41.914063-39.253906c3.34375-3.25 8.664062-3.25 12.007812 0l.582031-.582031c.203125.242187.425781.464844.664063.675781l-.539063.691406c9.289063 10.046875 9.035157 25.625-.578125 35.363281zm0 0"/><path d="m149.628906 363.964844c-.71875 2.144531-.554687 4.492187.457032 6.515625 1.007812 2.027343 2.78125 3.570312 4.929687 4.289062 19.695313 6.601563 70.828125 30.28125 70.828125 60.167969 0 4.710938 3.820312 8.53125 8.53125 8.53125 4.714844 0 8.535156-3.820312 8.535156-8.53125 0-48.257812-79.089844-75.230469-82.460937-76.359375-2.148438-.722656-4.496094-.5625-6.527344.449219-2.027344 1.007812-3.574219 2.785156-4.292969 4.9375zm0 0"/><path d="m268.40625 375.203125c4.710938 0 8.535156-3.820313 8.535156-8.535156 0-4.710938-3.824218-8.53125-8.535156-8.53125-22.253906 0-39.65625-16.734375-50.347656-30.71875-1.84375-2.429688-4.84375-3.6875-7.871094-3.300781-3.023438.386718-5.613281 2.355468-6.792969 5.167968-1.175781 2.8125-.765625 6.039063 1.078125 8.464844 13.03125 17.066406 34.691406 37.453125 63.933594 37.453125zm0 0"/><path d="m223.90625 2.859375-8.132812 8.535156c-2.222657 2.183594-3.078126 5.40625-2.230469 8.402344.847656 3 3.261719 5.300781 6.300781 5.996094 3.035156.699219 6.214844-.3125 8.285156-2.640625l8.132813-8.535156c2.222656-2.183594 3.074219-5.40625 2.226562-8.40625-.847656-2.996094-3.261719-5.296876-6.296875-5.992188-3.039062-.699219-6.214844.3125-8.285156 2.640625zm0 0"/><path d="m264.300781 41.164062c-.609375-2.179687-2.0625-4.027343-4.039062-5.136718-1.972657-1.109375-4.308594-1.390625-6.488281-.777344l-11.09375 3.125c-4.144532 1.125-6.804688 5.148438-6.21875 9.402344.585937 4.25 4.238281 7.402344 8.53125 7.367187.785156 0 1.566406-.109375 2.320312-.324219l11.09375-3.117187c2.179688-.613281 4.027344-2.070313 5.132812-4.046875 1.105469-1.976562 1.378907-4.3125.761719-6.492188zm0 0"/><path d="m240.527344 75.871094c-4.539063-1.273438-9.25 1.371094-10.523438 5.910156-1.277344 4.539062 1.367188 9.25 5.90625 10.523438l11.09375 3.125c.757813.210937 1.539063.320312 2.320313.316406 4.265625-.003906 7.871093-3.152344 8.453125-7.375.578125-4.226563-2.050782-8.226563-6.15625-9.378906zm0 0"/></g></svg>