<svg enable-background="new 0 0 58 58" height="512" viewBox="0 0 58 58" width="512" xmlns="http://www.w3.org/2000/svg"><path d="m54.75 58h-51.5c-1.795 0-3.25-1.455-3.25-3.25v-43.75h58v43.75c0 1.795-1.455 3.25-3.25 3.25z" fill="#e7eced"/><path d="m58 12h-58v-8.75c0-1.795 1.455-3.25 3.25-3.25h51.5c1.795 0 3.25 1.455 3.25 3.25z" fill="#556080"/><path d="m4 4h4v4h-4z" fill="#dd352e"/><path d="m12 4h4v4h-4z" fill="#ebba16"/><path d="m20 4h4v4h-4z" fill="#23a24d"/><path d="m4 16h50v14h-50z" fill="#fff"/><path d="m19 24-6 6h12z" fill="#188439"/><path d="m40 24-6 6h12z" fill="#188439"/><path d="m29 20-7 10h15z" fill="#23a24d"/><path d="m4 36h4v4h-4z" fill="#dd352e"/><path d="m22 37h-9c-.552 0-1-.447-1-1s.448-1 1-1h9c.552 0 1 .447 1 1s-.448 1-1 1z" fill="#ebba16"/><path d="m27 37h-1c-.552 0-1-.447-1-1s.448-1 1-1h1c.552 0 1 .447 1 1s-.448 1-1 1z" fill="#366db6"/><path d="m27 41h-9c-.552 0-1-.447-1-1s.448-1 1-1h9c.552 0 1 .447 1 1s-.448 1-1 1z" fill="#cb465f"/><path d="m14 41h-1c-.552 0-1-.447-1-1s.448-1 1-1h1c.552 0 1 .447 1 1s-.448 1-1 1z" fill="#23a24d"/><path d="m4 48h4v4h-4z" fill="#366db6"/><path d="m22 49h-9c-.552 0-1-.447-1-1s.448-1 1-1h9c.552 0 1 .447 1 1s-.448 1-1 1z" fill="#23a24d"/><path d="m27 49h-1c-.552 0-1-.447-1-1s.448-1 1-1h1c.552 0 1 .447 1 1s-.448 1-1 1z" fill="#366db6"/><path d="m27 53h-9c-.552 0-1-.447-1-1s.448-1 1-1h9c.552 0 1 .447 1 1s-.448 1-1 1z" fill="#dd352e"/><path d="m14 53h-1c-.552 0-1-.447-1-1s.448-1 1-1h1c.552 0 1 .447 1 1s-.448 1-1 1z" fill="#ebba16"/><path d="m32 34h22v20h-22z" fill="#fff"/><path d="m37 48-5 6h11z" fill="#1a893c"/><circle cx="39" cy="41" fill="#ed8a19" r="3"/><path d="m47 45-7 9h14z" fill="#23a24d"/></svg>