<svg id="Capa_1" enable-background="new 0 0 511.69 511.69" height="512" viewBox="0 0 511.69 511.69" width="512" xmlns="http://www.w3.org/2000/svg"><g><g><g><g><g><g><g><g><g><path d="m381.914 35.309h-318.903c-13.794 0-24.975 11.182-24.975 24.975v418.931c0 13.794 11.182 24.975 24.975 24.975h318.902c13.794 0 24.975-11.182 24.975-24.975v-418.931c.001-13.793-11.181-24.975-24.974-24.975z" fill="#f8e8bb"/><path d="m381.898 35.171h-27.671v469.174h27.671c13.802 0 24.991-11.189 24.991-24.991v-419.192c0-13.802-11.189-24.991-24.991-24.991z" fill="#ecd393"/><path d="m287.273 63.117h-129.622c-8.201 0-14.849-6.648-14.849-14.849v-25.92c0-8.201 6.648-14.849 14.849-14.849h129.622c8.201 0 14.849 6.648 14.849 14.849v25.92c0 8.201-6.648 14.849-14.849 14.849z" fill="#676e84"/></g></g></g></g></g><circle cx="384.723" cy="415.258" fill="#aed180" r="88.932"/><path d="m384.723 326.326c-9.167 0-18.01 1.387-26.331 3.963 36.261 11.224 62.601 45.02 62.601 84.969s-26.34 73.745-62.601 84.969c8.321 2.576 17.164 3.963 26.331 3.963 49.116 0 88.932-39.816 88.932-88.932s-39.816-88.932-88.932-88.932z" fill="#8dae5c"/></g></g><path d="m249.394 7.5v55.617h37.879c8.201 0 14.849-6.648 14.849-14.849v-25.92c0-8.201-6.648-14.849-14.849-14.849h-37.879z" fill="#4a4e67"/></g><g><g><g><g><g><path d="m267.182 380.952h-166.167c-4.143 0-7.5-3.358-7.5-7.5s3.357-7.5 7.5-7.5h166.167c4.143 0 7.5 3.358 7.5 7.5s-3.357 7.5-7.5 7.5z"/></g><g><path d="m343.91 261.91h-242.895c-4.143 0-7.5-3.358-7.5-7.5s3.357-7.5 7.5-7.5h242.895c4.143 0 7.5 3.358 7.5 7.5s-3.358 7.5-7.5 7.5z"/></g><g><path d="m343.91 321.431h-242.895c-4.143 0-7.5-3.358-7.5-7.5s3.357-7.5 7.5-7.5h242.895c4.143 0 7.5 3.358 7.5 7.5s-3.358 7.5-7.5 7.5z"/></g><g><path d="m222.462 121.792h-121.447c-4.143 0-7.5-3.358-7.5-7.5s3.357-7.5 7.5-7.5h121.447c4.143 0 7.5 3.358 7.5 7.5s-3.357 7.5-7.5 7.5z"/></g><g><path d="m343.91 202.388h-242.895c-4.143 0-7.5-3.358-7.5-7.5s3.357-7.5 7.5-7.5h242.895c4.143 0 7.5 3.358 7.5 7.5s-3.358 7.5-7.5 7.5z"/></g></g></g><g><path d="m377.33 455.881c-.074 0-.148-.001-.223-.003-2.342-.069-4.516-1.229-5.878-3.134l-23.687-33.123c-2.409-3.37-1.631-8.054 1.738-10.463 3.366-2.407 8.054-1.632 10.463 1.738l17.954 25.107 46.797-57.833c2.604-3.22 7.326-3.719 10.548-1.113 3.22 2.605 3.718 7.328 1.112 10.548l-52.995 65.494c-1.425 1.763-3.57 2.782-5.829 2.782z"/></g></g><g><path d="m287.273 70.617h-129.621c-12.323 0-22.35-10.025-22.35-22.349v-25.92c0-12.323 10.027-22.348 22.35-22.348h129.621c12.323 0 22.349 10.025 22.349 22.349v25.92c0 12.323-10.026 22.348-22.349 22.348zm-129.621-55.617c-4.053 0-7.35 3.296-7.35 7.349v25.92c0 4.052 3.297 7.349 7.35 7.349h129.621c4.052 0 7.349-3.296 7.349-7.349v-25.92c0-4.052-3.297-7.349-7.349-7.349z"/></g><g><path d="m406.889 301.715c-4.143 0-7.5-3.358-7.5-7.5v-233.931c0-9.636-7.84-17.476-17.476-17.476h-44.896c-4.143 0-7.5-3.358-7.5-7.5s3.357-7.5 7.5-7.5h44.896c17.907 0 32.476 14.568 32.476 32.476v233.931c0 4.142-3.357 7.5-7.5 7.5z"/></g><g><path d="m317.345 511.69h-254.334c-17.907 0-32.476-14.568-32.476-32.476v-418.93c0-17.907 14.568-32.476 32.476-32.476h44.896c4.143 0 7.5 3.358 7.5 7.5s-3.357 7.5-7.5 7.5h-44.896c-9.636 0-17.476 7.839-17.476 17.476v418.931c0 9.636 7.84 17.476 17.476 17.476h254.334c4.143 0 7.5 3.358 7.5 7.5s-3.357 7.499-7.5 7.499z"/></g><g><path d="m384.723 511.69c-53.173 0-96.433-43.259-96.433-96.432s43.26-96.432 96.433-96.432 96.432 43.259 96.432 96.432-43.259 96.432-96.432 96.432zm0-177.864c-44.902 0-81.433 36.53-81.433 81.432s36.53 81.432 81.433 81.432c44.901 0 81.432-36.53 81.432-81.432s-36.53-81.432-81.432-81.432z"/></g></g></g></svg>