<?xml version="1.0" encoding="utf-8"?>
<svg viewBox="-2.675 -37.269 501.85 434.451" xmlns="http://www.w3.org/2000/svg">
  <defs>
    <path d="M122.05 438.56C174.68 452.9 469.68 452.94 523.1 438.56C559.68 427.98 566.4 395.53 567.66 393.4C581.59 319.29 582.51 222.67 567.02 138.57C567.09 138.99 567.6 142.34 567.66 142.75C557.21 105.68 525.23 98.89 523.1 97.59C471.17 83.49 175.41 82.96 122.05 97.59C85.47 108.19 78.75 140.62 77.49 142.75C62.57 220.64 61.83 310.01 77.49 393.4C87.94 430.48 119.92 437.26 122.05 438.56ZM271.32 345.98L271.32 190.39L405 268.3L271.32 345.98Z" id="a4tVpwAOf2"/>
    <path d="M389.5 68.99C384.48 55.65 376.61 43.56 366.43 33.57C356.44 23.39 344.35 15.52 331.01 10.5C318.28 5.55 303.75 2.18 282.46 1.21C261.13 0.23 254.32 0 200 0C145.68 0 138.87 0.23 117.54 1.2C96.25 2.18 81.72 5.56 68.99 10.5C55.65 15.52 43.56 23.39 33.57 33.57C23.39 43.56 15.52 55.65 10.49 68.99C5.55 81.71 2.18 96.25 1.21 117.54C0.23 138.87 0 145.68 0 200C0 254.32 0.23 261.13 1.21 282.46C2.18 303.75 5.56 318.29 10.5 331.01C15.52 344.35 23.4 356.44 33.57 366.43C43.56 376.61 55.65 384.48 69 389.5C81.72 394.45 96.26 397.82 117.54 398.8C138.88 399.77 145.69 400 200 400C254.32 400 261.13 399.77 282.46 398.8C303.75 397.82 318.29 394.45 331.01 389.5C357.87 379.11 379.11 357.87 389.5 331.01C394.45 318.29 397.82 303.75 398.8 282.46C399.77 261.13 400 254.32 400 200C400 145.68 399.77 138.87 398.8 117.54C397.82 96.25 394.44 81.71 389.5 68.99ZM355.91 317.96C349.18 335.4 335.4 349.19 317.95 355.92C310.91 358.65 300.32 361.91 280.82 362.8C259.73 363.77 253.41 363.97 200 363.97C146.59 363.97 140.27 363.77 119.18 362.8C99.68 361.91 89.09 358.65 82.04 355.92C73.36 352.71 65.5 347.6 59.05 340.95C52.4 334.5 47.29 326.65 44.09 317.96C41.35 310.91 38.09 300.32 37.2 280.82C36.24 259.73 36.04 253.41 36.04 200C36.04 146.6 36.24 140.28 37.2 119.18C38.09 99.68 41.35 89.09 44.09 82.05C47.29 73.36 52.41 65.5 59.05 59.05C65.5 52.41 73.36 47.29 82.05 44.09C89.09 41.35 99.68 38.09 119.18 37.2C140.27 36.24 146.6 36.04 200 36.04C200 36.04 200 36.04 200 36.04C253.4 36.04 259.73 36.24 280.82 37.2C300.32 38.09 310.9 41.35 317.95 44.09C326.64 47.3 334.5 52.41 340.95 59.05C347.59 65.5 352.7 73.36 355.91 82.05C358.65 89.09 361.91 99.68 362.8 119.18C363.76 140.27 363.96 146.6 363.96 200C363.96 253.41 363.76 259.73 362.8 280.82C361.91 300.32 358.65 310.91 355.91 317.96Z" id="fxkNgwmKX"/>
    <linearGradient id="gradiente4kc1pzSAK" gradientUnits="userSpaceOnUse" x1="33.57" y1="366.43" x2="366.43" y2="33.56">
      <stop style="stop-color: #ffd600;stop-opacity: 1" offset="0"/>
      <stop style="stop-color: #ff0100;stop-opacity: 1" offset="0.5"/>
      <stop style="stop-color: #d800b9;stop-opacity: 1" offset="1"/>
    </linearGradient>
    <path d="M97.3 200C97.3 256.72 143.28 302.7 200 302.7C256.72 302.7 302.7 256.72 302.7 200C302.7 143.28 256.72 97.3 200 97.3C143.28 97.3 97.3 143.28 97.3 200ZM133.33 200C133.33 163.18 163.18 133.33 200 133.33C236.82 133.34 266.67 163.18 266.67 200C266.67 236.82 236.82 266.67 200 266.67C163.18 266.66 133.33 236.82 133.33 200Z" id="a2uNwSCyb"/>
    <linearGradient id="gradientb33qDJ0dXk" gradientUnits="userSpaceOnUse" x1="127.38" y1="272.62" x2="272.62" y2="127.38">
      <stop style="stop-color: #ff6400;stop-opacity: 1" offset="0"/>
      <stop style="stop-color: #ff0100;stop-opacity: 1" offset="0.5"/>
      <stop style="stop-color: #fd0056;stop-opacity: 1" offset="1"/>
    </linearGradient>
    <path d="M306.76 117.24C293.5 117.24 282.76 106.49 282.76 93.24C282.76 79.98 293.5 69.24 306.76 69.24C320.01 69.24 330.76 79.98 330.76 93.24C330.76 106.49 320.01 117.24 306.76 117.24Z" id="c2xNb4tyI"/>
    <linearGradient id="gradientd5Zy4592sU" gradientUnits="userSpaceOnUse" x1="289.79" y1="110.21" x2="323.73" y2="76.27">
      <stop style="stop-color: #f30072;stop-opacity: 1" offset="0"/>
      <stop style="stop-color: #e50097;stop-opacity: 1" offset="1"/>
    </linearGradient>
  </defs>
  <g transform="matrix(1.148619, 0, 0, 1.062792, 14.664275, -32.947926)" style="">
    <g>
      <g>
        <path d="M389.5 68.99C384.48 55.65 376.61 43.56 366.43 33.57C356.44 23.39 344.35 15.52 331.01 10.5C318.28 5.55 303.75 2.18 282.46 1.21C261.13 0.23 254.32 0 200 0C145.68 0 138.87 0.23 117.54 1.2C96.25 2.18 81.72 5.56 68.99 10.5C55.65 15.52 43.56 23.39 33.57 33.57C23.39 43.56 15.52 55.65 10.49 68.99C5.55 81.71 2.18 96.25 1.21 117.54C0.23 138.87 0 145.68 0 200C0 254.32 0.23 261.13 1.21 282.46C2.18 303.75 5.56 318.29 10.5 331.01C15.52 344.35 23.4 356.44 33.57 366.43C43.56 376.61 55.65 384.48 69 389.5C81.72 394.45 96.26 397.82 117.54 398.8C138.88 399.77 145.69 400 200 400C254.32 400 261.13 399.77 282.46 398.8C303.75 397.82 318.29 394.45 331.01 389.5C357.87 379.11 379.11 357.87 389.5 331.01C394.45 318.29 397.82 303.75 398.8 282.46C399.77 261.13 400 254.32 400 200C400 145.68 399.77 138.87 398.8 117.54C397.82 96.25 394.44 81.71 389.5 68.99ZM355.91 317.96C349.18 335.4 335.4 349.19 317.95 355.92C310.91 358.65 300.32 361.91 280.82 362.8C259.73 363.77 253.41 363.97 200 363.97C146.59 363.97 140.27 363.77 119.18 362.8C99.68 361.91 89.09 358.65 82.04 355.92C73.36 352.71 65.5 347.6 59.05 340.95C52.4 334.5 47.29 326.65 44.09 317.96C41.35 310.91 38.09 300.32 37.2 280.82C36.24 259.73 36.04 253.41 36.04 200C36.04 146.6 36.24 140.28 37.2 119.18C38.09 99.68 41.35 89.09 44.09 82.05C47.29 73.36 52.41 65.5 59.05 59.05C65.5 52.41 73.36 47.29 82.05 44.09C89.09 41.35 99.68 38.09 119.18 37.2C140.27 36.24 146.6 36.04 200 36.04C200 36.04 200 36.04 200 36.04C253.4 36.04 259.73 36.24 280.82 37.2C300.32 38.09 310.9 41.35 317.95 44.09C326.64 47.3 334.5 52.41 340.95 59.05C347.59 65.5 352.7 73.36 355.91 82.05C358.65 89.09 361.91 99.68 362.8 119.18C363.76 140.27 363.96 146.6 363.96 200C363.96 253.41 363.76 259.73 362.8 280.82C361.91 300.32 358.65 310.91 355.91 317.96Z" transform="matrix(1, 0, 0, 1, 0, 0)" opacity="1" fill="url(#gradiente4kc1pzSAK)"/>
        <g>
          <path d="M389.5 68.99C384.48 55.65 376.61 43.56 366.43 33.57C356.44 23.39 344.35 15.52 331.01 10.5C318.28 5.55 303.75 2.18 282.46 1.21C261.13 0.23 254.32 0 200 0C145.68 0 138.87 0.23 117.54 1.2C96.25 2.18 81.72 5.56 68.99 10.5C55.65 15.52 43.56 23.39 33.57 33.57C23.39 43.56 15.52 55.65 10.49 68.99C5.55 81.71 2.18 96.25 1.21 117.54C0.23 138.87 0 145.68 0 200C0 254.32 0.23 261.13 1.21 282.46C2.18 303.75 5.56 318.29 10.5 331.01C15.52 344.35 23.4 356.44 33.57 366.43C43.56 376.61 55.65 384.48 69 389.5C81.72 394.45 96.26 397.82 117.54 398.8C138.88 399.77 145.69 400 200 400C254.32 400 261.13 399.77 282.46 398.8C303.75 397.82 318.29 394.45 331.01 389.5C357.87 379.11 379.11 357.87 389.5 331.01C394.45 318.29 397.82 303.75 398.8 282.46C399.77 261.13 400 254.32 400 200C400 145.68 399.77 138.87 398.8 117.54C397.82 96.25 394.44 81.71 389.5 68.99ZM355.91 317.96C349.18 335.4 335.4 349.19 317.95 355.92C310.91 358.65 300.32 361.91 280.82 362.8C259.73 363.77 253.41 363.97 200 363.97C146.59 363.97 140.27 363.77 119.18 362.8C99.68 361.91 89.09 358.65 82.04 355.92C73.36 352.71 65.5 347.6 59.05 340.95C52.4 334.5 47.29 326.65 44.09 317.96C41.35 310.91 38.09 300.32 37.2 280.82C36.24 259.73 36.04 253.41 36.04 200C36.04 146.6 36.24 140.28 37.2 119.18C38.09 99.68 41.35 89.09 44.09 82.05C47.29 73.36 52.41 65.5 59.05 59.05C65.5 52.41 73.36 47.29 82.05 44.09C89.09 41.35 99.68 38.09 119.18 37.2C140.27 36.24 146.6 36.04 200 36.04C200 36.04 200 36.04 200 36.04C253.4 36.04 259.73 36.24 280.82 37.2C300.32 38.09 310.9 41.35 317.95 44.09C326.64 47.3 334.5 52.41 340.95 59.05C347.59 65.5 352.7 73.36 355.91 82.05C358.65 89.09 361.91 99.68 362.8 119.18C363.76 140.27 363.96 146.6 363.96 200C363.96 253.41 363.76 259.73 362.8 280.82C361.91 300.32 358.65 310.91 355.91 317.96Z" transform="matrix(1, 0, 0, 1, 0, 0)" opacity="1" fill-opacity="0" stroke="#000000" stroke-width="1" stroke-opacity="0"/>
        </g>
      </g>
      <g>
        <path d="M97.3 200C97.3 256.72 143.28 302.7 200 302.7C256.72 302.7 302.7 256.72 302.7 200C302.7 143.28 256.72 97.3 200 97.3C143.28 97.3 97.3 143.28 97.3 200ZM133.33 200C133.33 163.18 163.18 133.33 200 133.33C236.82 133.34 266.67 163.18 266.67 200C266.67 236.82 236.82 266.67 200 266.67C163.18 266.66 133.33 236.82 133.33 200Z" transform="matrix(1, 0, 0, 1, 0, 0)" opacity="1" fill="url(#gradientb33qDJ0dXk)"/>
        <g>
          <path d="M97.3 200C97.3 256.72 143.28 302.7 200 302.7C256.72 302.7 302.7 256.72 302.7 200C302.7 143.28 256.72 97.3 200 97.3C143.28 97.3 97.3 143.28 97.3 200ZM133.33 200C133.33 163.18 163.18 133.33 200 133.33C236.82 133.34 266.67 163.18 266.67 200C266.67 236.82 236.82 266.67 200 266.67C163.18 266.66 133.33 236.82 133.33 200Z" transform="matrix(1, 0, 0, 1, 0, 0)" opacity="1" fill-opacity="0" stroke="#000000" stroke-width="1" stroke-opacity="0"/>
        </g>
      </g>
      <g>
        <path d="M306.76 117.24C293.5 117.24 282.76 106.49 282.76 93.24C282.76 79.98 293.5 69.24 306.76 69.24C320.01 69.24 330.76 79.98 330.76 93.24C330.76 106.49 320.01 117.24 306.76 117.24Z" transform="matrix(1, 0, 0, 1, 0, 0)" opacity="1" fill="url(#gradientd5Zy4592sU)"/>
        <g>
          <path d="M306.76 117.24C293.5 117.24 282.76 106.49 282.76 93.24C282.76 79.98 293.5 69.24 306.76 69.24C320.01 69.24 330.76 79.98 330.76 93.24C330.76 106.49 320.01 117.24 306.76 117.24Z" transform="matrix(1, 0, 0, 1, 0, 0)" opacity="1" fill-opacity="0" stroke="#000000" stroke-width="1" stroke-opacity="0"/>
        </g>
      </g>
    </g>
  </g>
</svg>