<?xml version="1.0" encoding="utf-8"?>
<svg viewBox="-2.675 -37.269 501.85 434.451" xmlns="http://www.w3.org/2000/svg">
  <defs>
    <path d="M122.05 438.56C174.68 452.9 469.68 452.94 523.1 438.56C559.68 427.98 566.4 395.53 567.66 393.4C581.59 319.29 582.51 222.67 567.02 138.57C567.09 138.99 567.6 142.34 567.66 142.75C557.21 105.68 525.23 98.89 523.1 97.59C471.17 83.49 175.41 82.96 122.05 97.59C85.47 108.19 78.75 140.62 77.49 142.75C62.57 220.64 61.83 310.01 77.49 393.4C87.94 430.48 119.92 437.26 122.05 438.56ZM271.32 345.98L271.32 190.39L405 268.3L271.32 345.98Z" id="a4tVpwAOf2"/>
    <path d="M389.5 68.99C384.48 55.65 376.61 43.56 366.43 33.57C356.44 23.39 344.35 15.52 331.01 10.5C318.28 5.55 303.75 2.18 282.46 1.21C261.13 0.23 254.32 0 200 0C145.68 0 138.87 0.23 117.54 1.2C96.25 2.18 81.72 5.56 68.99 10.5C55.65 15.52 43.56 23.39 33.57 33.57C23.39 43.56 15.52 55.65 10.49 68.99C5.55 81.71 2.18 96.25 1.21 117.54C0.23 138.87 0 145.68 0 200C0 254.32 0.23 261.13 1.21 282.46C2.18 303.75 5.56 318.29 10.5 331.01C15.52 344.35 23.4 356.44 33.57 366.43C43.56 376.61 55.65 384.48 69 389.5C81.72 394.45 96.26 397.82 117.54 398.8C138.88 399.77 145.69 400 200 400C254.32 400 261.13 399.77 282.46 398.8C303.75 397.82 318.29 394.45 331.01 389.5C357.87 379.11 379.11 357.87 389.5 331.01C394.45 318.29 397.82 303.75 398.8 282.46C399.77 261.13 400 254.32 400 200C400 145.68 399.77 138.87 398.8 117.54C397.82 96.25 394.44 81.71 389.5 68.99ZM355.91 317.96C349.18 335.4 335.4 349.19 317.95 355.92C310.91 358.65 300.32 361.91 280.82 362.8C259.73 363.77 253.41 363.97 200 363.97C146.59 363.97 140.27 363.77 119.18 362.8C99.68 361.91 89.09 358.65 82.04 355.92C73.36 352.71 65.5 347.6 59.05 340.95C52.4 334.5 47.29 326.65 44.09 317.96C41.35 310.91 38.09 300.32 37.2 280.82C36.24 259.73 36.04 253.41 36.04 200C36.04 146.6 36.24 140.28 37.2 119.18C38.09 99.68 41.35 89.09 44.09 82.05C47.29 73.36 52.41 65.5 59.05 59.05C65.5 52.41 73.36 47.29 82.05 44.09C89.09 41.35 99.68 38.09 119.18 37.2C140.27 36.24 146.6 36.04 200 36.04C200 36.04 200 36.04 200 36.04C253.4 36.04 259.73 36.24 280.82 37.2C300.32 38.09 310.9 41.35 317.95 44.09C326.64 47.3 334.5 52.41 340.95 59.05C347.59 65.5 352.7 73.36 355.91 82.05C358.65 89.09 361.91 99.68 362.8 119.18C363.76 140.27 363.96 146.6 363.96 200C363.96 253.41 363.76 259.73 362.8 280.82C361.91 300.32 358.65 310.91 355.91 317.96Z" id="fxkNgwmKX"/>
    <path d="M97.3 200C97.3 256.72 143.28 302.7 200 302.7C256.72 302.7 302.7 256.72 302.7 200C302.7 143.28 256.72 97.3 200 97.3C143.28 97.3 97.3 143.28 97.3 200ZM133.33 200C133.33 163.18 163.18 133.33 200 133.33C236.82 133.34 266.67 163.18 266.67 200C266.67 236.82 236.82 266.67 200 266.67C163.18 266.66 133.33 236.82 133.33 200Z" id="a2uNwSCyb"/>
    <path d="M306.76 117.24C293.5 117.24 282.76 106.49 282.76 93.24C282.76 79.98 293.5 69.24 306.76 69.24C320.01 69.24 330.76 79.98 330.76 93.24C330.76 106.49 320.01 117.24 306.76 117.24Z" id="c2xNb4tyI"/>
    <path d="M36.18 0C16.2 0 0 16.2 0 36.18C0 68.95 0 331.05 0 363.82C0 383.8 16.2 400 36.18 400C68.95 400 331.05 400 363.82 400C383.8 400 400 383.8 400 363.82C400 331.05 400 68.95 400 36.18C400 16.2 383.8 0 363.82 0C298.29 0 68.95 0 36.18 0ZM113.25 355.92C108.76 355.92 72.91 355.92 68.42 355.92C62.61 355.92 57.89 351.2 57.89 345.39C57.89 326.6 57.89 176.28 57.89 157.49C57.89 151.67 62.61 146.96 68.42 146.96C72.91 146.96 108.76 146.96 113.25 146.96C119.06 146.96 123.78 151.67 123.78 157.49C123.78 170.02 123.78 232.65 123.78 345.39C120.63 352.41 117.12 355.92 113.25 355.92ZM48.25 86.67C48.25 63.15 67.32 44.08 90.84 44.08C114.35 44.08 133.42 63.15 133.42 86.67C133.42 110.18 114.35 129.25 90.84 129.25C67.32 129.25 48.25 110.18 48.25 86.67ZM348.34 355.92C343.53 355.92 305.05 355.92 300.24 355.92C294.89 355.92 290.56 351.58 290.56 346.23C290.56 337.42 290.56 266.91 290.56 258.1C290.56 244.95 294.42 200.49 256.2 200.49C226.56 200.49 220.54 230.92 219.34 244.58C219.34 254.75 219.34 336.07 219.34 346.23C219.34 351.58 215 355.92 209.66 355.92C205 355.92 167.79 355.92 163.14 355.92C157.79 355.92 153.45 351.58 153.45 346.23C153.45 327.28 153.45 175.6 153.45 156.64C153.45 151.3 157.79 146.96 163.14 146.96C167.79 146.96 205 146.96 209.66 146.96C215 146.96 219.34 151.3 219.34 156.64C219.34 158.28 219.34 171.4 219.34 173.03C230.33 156.54 246.66 143.81 281.44 143.81C358.46 143.81 358.02 215.76 358.02 255.3C358.02 261.36 358.02 291.67 358.02 346.23L358.02 346.23C355.13 352.69 351.9 355.92 348.34 355.92Z" id="fge9WuHpX"/>
  </defs>
  <g transform="matrix(1.055997, 0, 0, 1.040254, 37.258617, -29.151955)" style="">
    <g>
      <g>
        <path d="M36.18 0C16.2 0 0 16.2 0 36.18C0 68.95 0 331.05 0 363.82C0 383.8 16.2 400 36.18 400C68.95 400 331.05 400 363.82 400C383.8 400 400 383.8 400 363.82C400 331.05 400 68.95 400 36.18C400 16.2 383.8 0 363.82 0C298.29 0 68.95 0 36.18 0ZM113.25 355.92C108.76 355.92 72.91 355.92 68.42 355.92C62.61 355.92 57.89 351.2 57.89 345.39C57.89 326.6 57.89 176.28 57.89 157.49C57.89 151.67 62.61 146.96 68.42 146.96C72.91 146.96 108.76 146.96 113.25 146.96C119.06 146.96 123.78 151.67 123.78 157.49C123.78 170.02 123.78 232.65 123.78 345.39C120.63 352.41 117.12 355.92 113.25 355.92ZM48.25 86.67C48.25 63.15 67.32 44.08 90.84 44.08C114.35 44.08 133.42 63.15 133.42 86.67C133.42 110.18 114.35 129.25 90.84 129.25C67.32 129.25 48.25 110.18 48.25 86.67ZM348.34 355.92C343.53 355.92 305.05 355.92 300.24 355.92C294.89 355.92 290.56 351.58 290.56 346.23C290.56 337.42 290.56 266.91 290.56 258.1C290.56 244.95 294.42 200.49 256.2 200.49C226.56 200.49 220.54 230.92 219.34 244.58C219.34 254.75 219.34 336.07 219.34 346.23C219.34 351.58 215 355.92 209.66 355.92C205 355.92 167.79 355.92 163.14 355.92C157.79 355.92 153.45 351.58 153.45 346.23C153.45 327.28 153.45 175.6 153.45 156.64C153.45 151.3 157.79 146.96 163.14 146.96C167.79 146.96 205 146.96 209.66 146.96C215 146.96 219.34 151.3 219.34 156.64C219.34 158.28 219.34 171.4 219.34 173.03C230.33 156.54 246.66 143.81 281.44 143.81C358.46 143.81 358.02 215.76 358.02 255.3C358.02 261.36 358.02 291.67 358.02 346.23L358.02 346.23C355.13 352.69 351.9 355.92 348.34 355.92Z" transform="matrix(1, 0, 0, 1, 0, 0)" opacity="1" fill="#0077b7" fill-opacity="1"/>
        <g>
          <path d="M36.18 0C16.2 0 0 16.2 0 36.18C0 68.95 0 331.05 0 363.82C0 383.8 16.2 400 36.18 400C68.95 400 331.05 400 363.82 400C383.8 400 400 383.8 400 363.82C400 331.05 400 68.95 400 36.18C400 16.2 383.8 0 363.82 0C298.29 0 68.95 0 36.18 0ZM113.25 355.92C108.76 355.92 72.91 355.92 68.42 355.92C62.61 355.92 57.89 351.2 57.89 345.39C57.89 326.6 57.89 176.28 57.89 157.49C57.89 151.67 62.61 146.96 68.42 146.96C72.91 146.96 108.76 146.96 113.25 146.96C119.06 146.96 123.78 151.67 123.78 157.49C123.78 170.02 123.78 232.65 123.78 345.39C120.63 352.41 117.12 355.92 113.25 355.92ZM48.25 86.67C48.25 63.15 67.32 44.08 90.84 44.08C114.35 44.08 133.42 63.15 133.42 86.67C133.42 110.18 114.35 129.25 90.84 129.25C67.32 129.25 48.25 110.18 48.25 86.67ZM348.34 355.92C343.53 355.92 305.05 355.92 300.24 355.92C294.89 355.92 290.56 351.58 290.56 346.23C290.56 337.42 290.56 266.91 290.56 258.1C290.56 244.95 294.42 200.49 256.2 200.49C226.56 200.49 220.54 230.92 219.34 244.58C219.34 254.75 219.34 336.07 219.34 346.23C219.34 351.58 215 355.92 209.66 355.92C205 355.92 167.79 355.92 163.14 355.92C157.79 355.92 153.45 351.58 153.45 346.23C153.45 327.28 153.45 175.6 153.45 156.64C153.45 151.3 157.79 146.96 163.14 146.96C167.79 146.96 205 146.96 209.66 146.96C215 146.96 219.34 151.3 219.34 156.64C219.34 158.28 219.34 171.4 219.34 173.03C230.33 156.54 246.66 143.81 281.44 143.81C358.46 143.81 358.02 215.76 358.02 255.3C358.02 261.36 358.02 291.67 358.02 346.23L358.02 346.23C355.13 352.69 351.9 355.92 348.34 355.92Z" transform="matrix(1, 0, 0, 1, 0, 0)" opacity="1" fill-opacity="0" stroke="#000000" stroke-width="1" stroke-opacity="0"/>
        </g>
      </g>
    </g>
  </g>
</svg>