<svg xmlns="http://www.w3.org/2000/svg" xmlns:xlink="http://www.w3.org/1999/xlink" width="636.69" height="997.08" xmlns:v="https://vecta.io/nano"><defs><linearGradient id="A" x1="-58.3" y1="-230.8" x2="370.35" y2="361.96" gradientTransform="matrix(1, 0, 0, -1, -0.02, 428)" gradientUnits="userSpaceOnUse"><stop offset="0" stop-opacity="0"/><stop offset=".85" stop-opacity=".5"/><stop offset=".99"/></linearGradient><linearGradient id="B" x1="253.4" y1="44.3" x2="252.84" y2="65.89" xlink:href="#A"/><linearGradient id="C" x1="310.07" y1="222.38" x2="309.23" y2="403.99" xlink:href="#A"/><linearGradient id="D" x1="576.62" y1="30.69" x2="653.8" y2="148.98" gradientTransform="matrix(1, 0, 0, -1, -148.76, 428)" xlink:href="#A"/><linearGradient id="E" x1="440.65" y1="411.01" x2="445.72" y2="434.48" xlink:href="#A"/><linearGradient id="F" x1="436.77" y1="296.34" x2="461.96" y2="295.88" gradientUnits="userSpaceOnUse"><stop offset="0" stop-color="#ecc4d7"/><stop offset=".42" stop-color="#efd4d1"/><stop offset="1" stop-color="#f2eac9"/></linearGradient><linearGradient id="G" x1="438.26" y1="288.698" x2="433.07" y2="298.492" xlink:href="#F"/><linearGradient id="H" x1="341.6" y1="332.62" x2="369.74" y2="332.62" xlink:href="#F"/><path id="I" d="M169.47 227.05h280.6c10.105.006 18.294 8.195 18.3 18.3v69.1c-.006 10.105-8.195 18.294-18.3 18.3h-280.6c-10.105-.006-18.294-8.195-18.3-18.3v-69.1c.006-10.105 8.195-18.294 18.3-18.3z"/><path id="J" d="M143.17 102.85h47.4v47.4h-47.4z"/><path id="K" d="M450.17 251.55h-181a3 3 0 0 1-3-3h0a3 3 0 0 1 3-3h181a3 3 0 0 1 3 3h0a3 3 0 0 1-3 3z"/><path id="L" d="M377.87 139.85h-169.6a2.8 2.8 0 0 1-2.8-2.8h0a2.8 2.8 0 0 1 2.8-2.8h169.6a2.8 2.8 0 0 1 2.8 2.8h0a2.86 2.86 0 0 1-2.8 2.8z"/></defs><path d="M523.17 569.65c-17.3 2-34.6 3.7-51.9 5.2a7.46 7.46 0 0 0 .7 1.2c1.8 2.7 5.5 3.2 8.6 4.5s5.9 5 3.9 7.6c-1 1.3-2.8 1.7-4.4 1.9l-17.9 3c-21.8 3.6-44.8 7.2-65.4-.7-8.5-3.3-9.1-8.2-6.2-12.3-110.7 4.8-221.9 1.1-332.8-2.5-9 0-19.1-2.4-21.5-11.5 57.1-25.7 112.5-25.8 174.4-27.5l217.5-5.8c3.7-.1 7.7-.1 10.9 1.8s5 5.7 7.7 8.5c8 8.3 21.4 6.6 32.9 5.7a126.35 126.35 0 0 1 49.6 6.3c2.2.7 4.6 1.7 5.7 3.7 3 5.6-5.5 10.2-11.8 10.9z" fill="#1d2741" opacity=".18"/><g fill="#2f55d4"><path d="M232.37 2.05c-29.2 6.1-54.9 23.5-77.1 43.4s-42 42.5-64.7 61.9c-35.1 30.1-80.1 57.1-89 102.5-7.1 36.4 12.1 72.8 13 109.9.5 28.1-9.4 55.3-11.5 83.3-2.1 27.6 4.2 56.8 22.3 77.7 25.8 29.8 70 36.8 109.1 31.2s75.9-21.6 114.4-30.1c46.4-10.2 94.7-9.4 142-4.3 28.9 3.1 59.2 7.6 86.4-2.8 24.2-9.2 43.3-29.8 52.5-54s8.9-51.5 1-76.1c-10.9-34.1-35-62.3-50.4-94.6-13.1-27.5-19.6-57.5-26.8-87.1-4.8-19.6-10.2-39.9-23.5-55.1-15.1-17.5-38-25.6-58.3-36.7-49.1-26.8-75.3-82.5-139.4-69.1z" opacity=".18"/><path d="M119.67 36.55h173.4v534.8h-173.4a31.6 31.6 0 0 1-31.6-31.6V68.15c0-17.452 14.148-31.6 31.6-31.6z"/></g><path d="M119.7,36.5H293.1V571.3H119.7a31.6,31.6,0,0,1-31.6-31.6h0V68.1a31.6,31.6,0,0,1,31.6-31.6Z" transform="translate(-.03 .05)" fill="url(#A)"/><path d="M138.87 36.55h228.5a37.3 37.3 0 0 1 37.3 37.3v460.2c0 20.6-16.7 37.3-37.3 37.3h-228.5c-20.6 0-37.3-16.7-37.3-37.3V73.85a37.3 37.3 0 0 1 37.3-37.3z" fill="#2f55d4"/><path d="M391.37 68.65v444.8c-.055 10.415-8.485 18.845-18.9 18.9h-238.7c-10.408-.033-18.822-8.492-18.8-18.9h0V68.65c-.022-10.408 8.392-18.867 18.8-18.9h47.2v5.9c0 10.493 8.507 19 19 19h105.9c10.493 0 19-8.507 19-19v-5.9h47.6a18.88 18.88 0 0 1 18.9 18.9z" fill="#fff"/><path d="M225.8 51.3h54.7a2.48 2.48 0 0 1 2.5 2.5v.5a2.48 2.48 0 0 1-2.5 2.5h-54.7a2.48 2.48 0 0 1-2.5-2.5v-.5a2.54 2.54 0 0 1 2.5-2.5z" transform="translate(-.03 .05)" fill="url(#B)"/><path d="M370.67 49.75v402.1c-.022 18.824-15.276 34.078-34.1 34.1h-221.6V68.65c-.022-10.408 8.392-18.867 18.8-18.9h47.2v5.9c0 10.493 8.507 19 19 19h105.9c10.493 0 19-8.507 19-19v-5.9z" fill="#ebebf0"/><use xlink:href="#I" fill="#2f55d4"/><path d="M169.5,227H450.1a18.31,18.31,0,0,1,18.3,18.3v69.1a18.31,18.31,0,0,1-18.3,18.3H169.5a18.31,18.31,0,0,1-18.3-18.3V245.3A18.31,18.31,0,0,1,169.5,227Z" transform="translate(-.03 .05)" fill="url(#C)"/><g fill="#fff"><use xlink:href="#I" x="5.5" y="-6.6"/><use xlink:href="#J"/></g><path d="M185.37 239.85h48a9.5 9.5 0 0 1 9.5 9.5v48a9.5 9.5 0 0 1-9.5 9.5h-48a9.5 9.5 0 0 1-9.5-9.5v-48a9.43 9.43 0 0 1 9.5-9.5z" fill="#ebebf0"/><g fill="#fff"><use xlink:href="#J" y="58.8"/><use xlink:href="#J" y="245.8"/><use xlink:href="#J" y="304.6"/><path d="M242.77 288.45v8.9a9.5 9.5 0 0 1-9.5 9.5h-48a9.5 9.5 0 0 1-9.5-9.5v-8.9a66.72 66.72 0 0 1 26.5-10.3 14.2 14.2 0 0 1 7.044-26.588 14.2 14.2 0 0 1 6.656 26.688c14.2 2.3 26.8 10.2 26.8 10.2z" opacity=".38"/></g><use xlink:href="#K" fill="#ebebf0"/><g fill="#fff"><path d="M208.27 115.25h169.6a2.8 2.8 0 0 1 2.8 2.8h0a2.8 2.8 0 0 1-2.8 2.8h-169.6a2.8 2.8 0 0 1-2.8-2.8h0a2.8 2.8 0 0 1 2.8-2.8z"/><use xlink:href="#L"/><use xlink:href="#L" y="38.2"/><use xlink:href="#L" y="54.3"/><use xlink:href="#L" y="227.3"/><use xlink:href="#L" y="243.4"/><use xlink:href="#L" y="286.1"/><use xlink:href="#L" y="302.2"/></g><g fill="#ebebf0"><use xlink:href="#K" y="19.3"/><use xlink:href="#K" y="38.6"/></g><path d="M415.77 420.95l-11.4 83a21.75 21.75 0 0 0 1.1 10.4l20.4 60 11.9-3.7-9-59.7a9.26 9.26 0 0 1 .2-3.7l15.5-53.4 6.7 120.4h11l9.5-118.9c3.2-19.8-2.7-34.5-2.7-34.5z" fill="#3f3d56"/><g fill="#2f55d4"><path d="M474.17 347.75v57c0 7-1.1 12.6-8.1 12.6h-48.8c-7 0-7.2-5.6-7.3-12.6l-.4-38.8s-10.5 18.8-18.9 17-33.3-36.2-33.3-36.2l12.4-10.4 20.9 21s3.4-7.6 8.2-24.7 20.8-17.2 20.8-17.2h42.4c15.3 0 12.1 32.3 12.1 32.3z"/><path d="M473.87 290.15s15.5 31.8 16.3 42.7-15.8 25.6-15.8 25.6l-12.4-43h11.8v-25.3z"/></g><path d="M473.9,290.1s15.5,31.8,16.3,42.7-15.8,25.6-15.8,25.6l-12.4-43h11.8V290.1Z" transform="translate(-.03 .05)" fill="url(#D)"/><path d="M474.47 358.45s10.1-27.8 9-34.1-9.6-26.5-9.6-26.5v17.7l-14.9.3zm-58.7 58.6h53.2v3.9h-53.2z" fill="#2f55d4"/><path fill="url(#E)" d="M415.77 417.05h53.2v3.9h-53.2z"/><path fill="url(#F)" d="M433.87 276.75h15.3v39h-15.3z"/><path d="M449.2,272.4v43.3h-8.1v-2.6a5.8,5.8,0,0,0-5.8-5.8h-.5a14.53,14.53,0,0,1-14.6-14.5h0V272.5h29Z" transform="translate(-.03 .05)" fill="url(#G)"/><path d="M424.07 259.25c3.2-1.8 7.1-2 10.9-2.1l7.9-.2a31.33 31.33 0 0 1 5.3.2 13 13 0 0 1 10.7 15h0a13.82 13.82 0 0 1-.8 2.7 6.64 6.64 0 0 0-.6 2 8.86 8.86 0 0 0 1.1 3.1c1.1 3-.7 6.2-2.7 8.6s-4.4 4.9-4.7 8.1c-.1 1 0 2.2-.7 3a2.56 2.56 0 0 1-3.2.2 7.84 7.84 0 0 1-2.2-2.6c.1 1.5-2 2.3-3.3 1.6a5.17 5.17 0 0 1-2.2-3.7 12.1 12.1 0 0 0-1.3-4.2c-.7-1-1.8-1.7-2.1-2.9-.6-2 1.4-4.2.6-6.2-.6-1.6-2.9-2.1-4.5-1.4a9.83 9.83 0 0 0-3.7 3.6c1.5-2 .3-5.4-1.3-7-2.5-2.7-6.2-.4-8.3-2.3-3.9-3.8 1.6-13.5 5.1-15.5z" fill="#3f3d56"/><path d="M445.77 315.65s-6 7.8-14.2 7.8-32.3 23.6-33.9 30.7-7 3.2-7 3.2 3.4-7.6 8.2-24.7 20.8-17.2 20.8-17.2h21.6z" fill="#fff" opacity=".25"/><path d="M437.67 569.65l4.2 10.3-16.9 8-15.7 1.1s-2.7-10.3 4.6-11.2a24.82 24.82 0 0 0 11.8-4.6zm13.4 4.6h0a12.83 12.83 0 0 0-7.8 10.5l-.4 4.3h19.2v-14.8z" fill="#222a72"/><path d="M369.7,336.4l-8.1-10s-2.8-10.7-4.3-4.1c-.9,3.7-3.3,10.4-3.3,10.4H341.6s8.7,9.2,12.4,10.9a20,20,0,0,0,5.3,1.5Z" transform="translate(-.03 .05)" fill="url(#H)"/></svg>