<?xml version="1.0" encoding="utf-8"?>
<svg viewBox="-2.675 -37.269 501.85 434.451" xmlns="http://www.w3.org/2000/svg">
  <defs>
    <path d="M122.05 438.56C174.68 452.9 469.68 452.94 523.1 438.56C559.68 427.98 566.4 395.53 567.66 393.4C581.59 319.29 582.51 222.67 567.02 138.57C567.09 138.99 567.6 142.34 567.66 142.75C557.21 105.68 525.23 98.89 523.1 97.59C471.17 83.49 175.41 82.96 122.05 97.59C85.47 108.19 78.75 140.62 77.49 142.75C62.57 220.64 61.83 310.01 77.49 393.4C87.94 430.48 119.92 437.26 122.05 438.56ZM271.32 345.98L271.32 190.39L405 268.3L271.32 345.98Z" id="a4tVpwAOf2"/>
  </defs>
  <g transform="matrix(0.898845, 0, 0, 0.875268, -43.664062, -62.895649)" style="">
    <g>
      <g>
        <path d="M122.05 438.56C174.68 452.9 469.68 452.94 523.1 438.56C559.68 427.98 566.4 395.53 567.66 393.4C581.59 319.29 582.51 222.67 567.02 138.57C567.09 138.99 567.6 142.34 567.66 142.75C557.21 105.68 525.23 98.89 523.1 97.59C471.17 83.49 175.41 82.96 122.05 97.59C85.47 108.19 78.75 140.62 77.49 142.75C62.57 220.64 61.83 310.01 77.49 393.4C87.94 430.48 119.92 437.26 122.05 438.56ZM271.32 345.98L271.32 190.39L405 268.3L271.32 345.98Z" transform="matrix(1, 0, 0, 1, 0, 0)" opacity="1" fill="#e53935" fill-opacity="1"/>
        <g>
          <path d="M122.05 438.56C174.68 452.9 469.68 452.94 523.1 438.56C559.68 427.98 566.4 395.53 567.66 393.4C581.59 319.29 582.51 222.67 567.02 138.57C567.09 138.99 567.6 142.34 567.66 142.75C557.21 105.68 525.23 98.89 523.1 97.59C471.17 83.49 175.41 82.96 122.05 97.59C85.47 108.19 78.75 140.62 77.49 142.75C62.57 220.64 61.83 310.01 77.49 393.4C87.94 430.48 119.92 437.26 122.05 438.56ZM271.32 345.98L271.32 190.39L405 268.3L271.32 345.98Z" transform="matrix(1, 0, 0, 1, 0, 0)" opacity="1" fill-opacity="0" stroke="#000000" stroke-width="1" stroke-opacity="0"/>
        </g>
      </g>
    </g>
  </g>
</svg>